<svg width="84" height="45" viewBox="0 0 84 45" fill="none" xmlns="http://www.w3.org/2000/svg">
<path d="M0.648 0.543999C1.50133 0.586665 2.52533 0.629331 3.72 0.671997C4.95733 0.714663 6.152 0.735996 7.304 0.735996C8.328 0.735996 9.352 0.735996 10.376 0.735996C11.4 0.69333 12.424 0.671997 13.448 0.671997C14.472 0.629331 15.4747 0.607998 16.456 0.607998C18.9307 0.607998 21.192 0.863998 23.24 1.376C25.288 1.888 26.9307 2.82666 28.168 4.192C29.448 5.51466 30.088 7.43467 30.088 9.952C30.088 12.6827 29.256 15.0293 27.592 16.992C25.928 18.912 23.6667 20.0853 20.808 20.512C23.0693 20.64 25.1387 21.0667 27.016 21.792C28.936 22.4747 30.472 23.584 31.624 25.12C32.776 26.656 33.352 28.7467 33.352 31.392C33.352 33.696 32.8187 35.808 31.752 37.728C30.728 39.648 29.0853 41.184 26.824 42.336C24.5627 43.4453 21.6187 44 17.992 44C16.7973 44 15.368 44 13.704 44C12.0827 44 10.4187 44 8.712 44C7.00533 44.0427 5.42667 44.064 3.976 44.064C2.52533 44.1067 1.39467 44.1493 0.584 44.192C0.584 43.5947 0.605333 43.0827 0.648 42.656C0.690667 42.1867 0.776 41.7813 0.904 41.44C2.056 41.3547 2.952 41.1413 3.592 40.8C4.232 40.4587 4.68 39.8613 4.936 39.008C5.23467 38.112 5.384 36.832 5.384 35.168V8.864C5.384 7.41333 5.256 6.304 5 5.536C4.744 4.768 4.296 4.21333 3.656 3.872C3.016 3.53066 2.12 3.33866 0.968 3.296C0.84 2.95466 0.754667 2.54933 0.712 2.08C0.669334 1.568 0.648 1.056 0.648 0.543999ZM11.4 2.976V35.168C11.4 36.9173 11.5493 38.24 11.848 39.136C12.1893 39.9893 12.7867 40.5653 13.64 40.864C14.536 41.12 15.7733 41.248 17.352 41.248C20.5093 41.248 22.8133 40.4587 24.264 38.88C25.7573 37.2587 26.504 35.0613 26.504 32.288C26.504 30.2827 26.0987 28.6613 25.288 27.424C24.4773 26.144 23.3893 25.184 22.024 24.544C20.7013 23.8613 19.2293 23.392 17.608 23.136C16.0293 22.88 14.4507 22.752 12.872 22.752H10.632V20H13.384C16.1573 20 18.2693 19.616 19.72 18.848C21.1707 18.08 22.1733 17.0773 22.728 15.84C23.2827 14.56 23.56 13.2373 23.56 11.872C23.56 9.65333 23.048 7.94667 22.024 6.752C21.0427 5.51467 19.8053 4.66133 18.312 4.192C16.8613 3.68 15.432 3.424 14.024 3.424C13.4693 3.424 12.9147 3.46667 12.36 3.552C11.848 3.59466 11.2293 3.72266 10.504 3.936L11.4 2.976ZM44.299 44.64C42.9337 44.64 41.867 44.256 41.099 43.488C40.331 42.72 39.947 41.7387 39.947 40.544C39.947 39.3493 40.3737 38.3253 41.227 37.472C42.123 36.6187 43.2537 36.192 44.619 36.192C45.9417 36.192 46.9657 36.64 47.691 37.536C48.459 38.3893 48.843 39.264 48.843 40.16C48.843 41.696 48.3737 42.8267 47.435 43.552C46.539 44.2773 45.4937 44.64 44.299 44.64ZM69.344 44.576C66.6987 44.576 64.3733 44.2133 62.368 43.488C60.4053 42.72 58.4 41.7173 56.352 40.48C56.608 38.8587 56.7573 37.2373 56.8 35.616C56.8853 33.9947 56.928 32.5867 56.928 31.392C57.3973 31.264 57.952 31.1787 58.592 31.136C59.232 31.0507 59.8293 31.008 60.384 31.008C60.512 33.184 60.896 35.0613 61.536 36.64C62.2187 38.176 63.264 39.3707 64.672 40.224C66.1227 41.0773 67.9787 41.504 70.24 41.504C73.184 41.504 75.2747 40.864 76.512 39.584C77.792 38.2613 78.432 36.6827 78.432 34.848C78.432 32.9707 77.92 31.4347 76.896 30.24C75.872 29.0027 74.5493 27.9573 72.928 27.104C71.3067 26.2507 69.5787 25.4187 67.744 24.608C65.952 23.7973 64.2453 22.8587 62.624 21.792C61.0027 20.7253 59.68 19.4027 58.656 17.824C57.632 16.2027 57.12 14.1547 57.12 11.68C57.12 9.29066 57.632 7.24266 58.656 5.536C59.7227 3.78667 61.216 2.464 63.136 1.568C65.056 0.62933 67.3387 0.159996 69.984 0.159996C71.4773 0.159996 72.8853 0.287997 74.208 0.543999C75.5733 0.799998 76.8107 1.14133 77.92 1.568C79.0293 1.99466 79.9467 2.464 80.672 2.976C80.672 4.21333 80.6933 5.64266 80.736 7.264C80.7787 8.88533 80.8853 10.272 81.056 11.424C80.5867 11.5947 80.0107 11.744 79.328 11.872C78.688 11.9573 78.0693 12 77.472 12C77.0453 9.52533 76.4907 7.648 75.808 6.368C75.1253 5.088 74.2933 4.21333 73.312 3.744C72.3307 3.232 71.2 2.976 69.92 2.976C67.6587 2.976 65.888 3.53067 64.608 4.64C63.328 5.74933 62.688 7.30666 62.688 9.312C62.688 11.1893 63.2 12.7467 64.224 13.984C65.248 15.2213 66.5707 16.288 68.192 17.184C69.8133 18.08 71.52 18.9547 73.312 19.808C75.104 20.6187 76.8107 21.5573 78.432 22.624C80.0533 23.648 81.376 24.928 82.4 26.464C83.424 28 83.936 29.9413 83.936 32.288C83.936 34.4213 83.424 36.4267 82.4 38.304C81.376 40.1813 79.7973 41.696 77.664 42.848C75.5307 44 72.7573 44.576 69.344 44.576Z" fill="black"/>
</svg>
